<svg width="16" height="16" viewBox="0 0 16 16" fill="none" xmlns="http://www.w3.org/2000/svg">
<path d="M5.98728 1.97276L13.6073 7.59776C13.6671 7.64637 13.7154 7.7077 13.7485 7.7773C13.7816 7.84691 13.7988 7.92303 13.7988 8.00011C13.7988 8.0772 13.7816 8.15332 13.7485 8.22292C13.7154 8.29253 13.6671 8.35386 13.6073 8.40246L5.98728 14.0275C5.52935 14.1964 5.26497 14.0677 5.19413 13.6415L12.2925 8.40246C12.3523 8.35386 12.4006 8.29253 12.4337 8.22292C12.4668 8.15332 12.484 8.0772 12.484 8.00011C12.484 7.92303 12.4668 7.84691 12.4337 7.7773C12.4006 7.7077 12.3523 7.64637 12.2925 7.59776L5.19708 2.36096C5.20179 2.27135 5.23033 2.18463 5.27976 2.10973C5.32918 2.03484 5.3977 1.9745 5.47824 1.93493C5.55878 1.89536 5.64842 1.87801 5.7379 1.88466C5.82739 1.89131 5.91348 1.92173 5.98728 1.97276ZM2.98778 14.027L4.85153 12.6514L5.98118 11.8174L10.6085 8.40241C10.6715 8.35593 10.7226 8.29532 10.7579 8.22544C10.7932 8.15557 10.8116 8.07839 10.8116 8.00011C10.8116 7.92184 10.7932 7.84466 10.7579 7.77479C10.7226 7.70491 10.6715 7.64429 10.6085 7.59781L5.98108 4.18251L4.85153 3.34881L2.98778 1.97326L2.98718 1.97261C2.89722 1.91 2.78929 1.87844 2.67976 1.88271C2.57023 1.88698 2.46509 1.92685 2.38027 1.99628C2.29546 2.06572 2.2356 2.16091 2.20977 2.26744C2.18395 2.37396 2.19357 2.486 2.23718 2.58656L4.76368 8.00011L2.23733 13.4137C2.20639 13.4799 2.19038 13.552 2.19043 13.6251C2.19197 13.717 2.21858 13.8067 2.26738 13.8845C2.31618 13.9624 2.38532 14.0255 2.46734 14.0669C2.54935 14.1083 2.64113 14.1266 2.73275 14.1196C2.82438 14.1127 2.91237 14.0809 2.98723 14.0276L2.98778 14.027Z" fill="#FF602F"/>
</svg>
