<svg width="52" height="52" viewBox="0 0 52 52" fill="none" xmlns="http://www.w3.org/2000/svg">
<path d="M13.8844 29.4318C9.08832 29.4318 5.20036 33.3198 5.20036 38.1158C5.20036 42.9118 9.08832 46.7998 13.8844 46.7998C18.6804 46.7998 22.5684 42.9118 22.5684 38.1158C22.5684 33.3198 18.6804 29.4318 13.8844 29.4318Z" fill="#FF602F"/>
<path d="M16.7959 18.0443L33.9559 35.2043C34.6319 35.8803 34.6319 36.9723 33.9559 37.6483C33.2799 38.3243 32.1879 38.3243 31.5119 37.6483L14.3519 20.4883C13.6759 19.8123 13.6759 18.7203 14.3519 18.0443C14.9759 17.3683 16.1199 17.3683 16.7959 18.0443Z" fill="#FF602F"/>
<path d="M19.2399 10.7121L41.2879 32.7601C41.9639 33.4361 41.9639 34.5281 41.2879 35.2041C40.6119 35.8801 39.5199 35.8801 38.8439 35.2041L16.7959 13.1561C16.1199 12.4801 16.1199 11.3881 16.7959 10.7121C17.4719 10.0361 18.5639 10.0361 19.2399 10.7121Z" fill="#FF602F"/>
<path d="M46.7998 29.1723V6.76026C46.7998 5.87626 46.1238 5.20026 45.2398 5.20026H22.8278C21.4238 5.20026 20.7478 6.86426 21.7358 7.85226L44.1478 30.2643C45.1358 31.2523 46.7998 30.5763 46.7998 29.1723Z" fill="#FF602F"/>
</svg>
