<svg width="52" height="52" viewBox="0 0 52 52" fill="none" xmlns="http://www.w3.org/2000/svg">
<path d="M26 46.8C28.5693 44.4236 30.1912 41.0348 30.1912 37.2668C30.1912 33.4989 28.5693 30.1096 26 27.7332H37.2668C42.5308 27.7332 46.8 32.0024 46.8 37.2668C46.8 42.5308 42.5308 46.8 37.2668 46.8H26Z" fill="#FF602F"/>
<path d="M5.2002 46.8C7.76952 44.4236 9.3914 41.0348 9.3914 37.2668C9.3914 33.4989 7.76952 30.1096 5.2002 27.7332H16.467C21.7294 27.7332 25.9986 32.0024 25.9986 37.2668C25.9986 42.5308 21.7294 46.8 16.467 46.8H5.2002Z" fill="#FF602F"/>
<path d="M26 24.2669C28.5693 21.8899 30.1912 18.5016 30.1912 14.7337C30.1912 10.9658 28.5693 7.57641 26 5.20001H37.2668C42.5308 5.20001 46.8 9.46869 46.8 14.7332C46.8 19.9977 42.5308 24.2663 37.2668 24.2663L26 24.2669Z" fill="#FF602F"/>
<path d="M5.2002 24.2669C7.76952 21.8899 9.3914 18.5016 9.3914 14.7337C9.3914 10.9658 7.76952 7.57641 5.2002 5.20001H16.467C21.7294 5.20001 25.9986 9.46869 25.9986 14.7332C25.9986 19.9977 21.7294 24.2663 16.467 24.2663L5.2002 24.2669Z" fill="#FF602F"/>
</svg>
