<svg width="52" height="52" viewBox="0 0 52 52" fill="none" xmlns="http://www.w3.org/2000/svg">
<path d="M32.8555 32.8555C32.8555 40.4279 26.7169 46.5664 19.1445 46.5664C11.5721 46.5664 5.43359 40.4279 5.43359 32.8555H32.8555ZM19.1445 5.43359C11.5721 5.43359 5.43359 11.5721 5.43359 19.1445C5.43359 26.7169 11.5721 32.8555 19.1445 32.8555V5.43359ZM46.5664 19.1445C46.5664 11.5721 40.4279 5.43359 32.8555 5.43359C25.2831 5.43359 19.1445 11.5721 19.1445 19.1445H46.5664ZM32.8555 46.5664C40.4279 46.5664 46.5664 40.4279 46.5664 32.8555C46.5664 25.2831 40.4279 19.1445 32.8555 19.1445V46.5664Z" fill="#FF602F"/>
</svg>
