<svg width="28" height="28" viewBox="0 0 28 28" fill="none" xmlns="http://www.w3.org/2000/svg">
<path d="M14 8.16676C12.7131 8.16676 11.6668 7.1204 11.6668 5.83352C11.6668 4.54664 12.7131 3.5 14 3.5C15.2863 3.5 16.3332 4.54636 16.3332 5.83324C16.3332 7.12012 15.2863 8.16676 14 8.16676ZM14 24.5C12.7131 24.5 11.6668 23.4531 11.6668 22.1668C11.6668 20.8804 12.7131 19.8335 14 19.8335C15.2863 19.8335 16.3332 20.8804 16.3332 22.1668C16.3332 23.4531 15.2863 24.5 14 24.5ZM14 16.3332C12.7131 16.3332 11.6668 15.2863 11.6668 14C11.6668 12.7131 12.7131 11.6668 14 11.6668C15.2863 11.6668 16.3332 12.7131 16.3332 14C16.3332 15.2863 15.2863 16.3332 14 16.3332ZM14 8.16676C12.7131 8.16676 11.6668 7.1204 11.6668 5.83352C11.6668 4.54664 12.7131 3.5 14 3.5C15.2863 3.5 16.3332 4.54636 16.3332 5.83324C16.3332 7.12012 15.2863 8.16676 14 8.16676ZM5.83324 8.16676C4.54636 8.16676 3.5 7.1204 3.5 5.83352C3.5 4.54664 4.54636 3.50028 5.83324 3.50028C7.12012 3.50028 8.16648 4.54664 8.16648 5.83352C8.16648 7.1204 7.12012 8.16676 5.83324 8.16676ZM5.83324 8.16676C4.54636 8.16676 3.5 7.1204 3.5 5.83352C3.5 4.54664 4.54636 3.50028 5.83324 3.50028C7.12012 3.50028 8.16648 4.54664 8.16648 5.83352C8.16648 7.1204 7.12012 8.16676 5.83324 8.16676ZM14 24.5C12.7131 24.5 11.6668 23.4531 11.6668 22.1668C11.6668 20.8804 12.7131 19.8335 14 19.8335C15.2863 19.8335 16.3332 20.8804 16.3332 22.1668C16.3332 23.4531 15.2863 24.5 14 24.5ZM8.16676 14C8.16676 12.7131 7.1204 11.6668 5.83352 11.6668C4.54664 11.6668 3.5 12.7131 3.5 14C3.5 15.2863 4.54636 16.3332 5.83324 16.3332C7.12012 16.3332 8.16676 15.2863 8.16676 14ZM24.5 14C24.5 12.7131 23.4531 11.6668 22.1668 11.6668C20.8804 11.6668 19.8335 12.7131 19.8335 14C19.8335 15.2863 20.8804 16.3332 22.1668 16.3332C23.4531 16.3332 24.5 15.2863 24.5 14ZM8.16676 14C8.16676 12.7131 7.1204 11.6668 5.83352 11.6668C4.54664 11.6668 3.5 12.7131 3.5 14C3.5 15.2863 4.54636 16.3332 5.83324 16.3332C7.12012 16.3332 8.16676 15.2863 8.16676 14ZM8.16676 22.1668C8.16676 20.8804 7.1204 19.8335 5.83352 19.8335C4.54664 19.8335 3.5 20.8804 3.5 22.1668C3.5 23.4531 4.54636 24.5 5.83324 24.5C7.12012 24.5 8.16676 23.4531 8.16676 22.1668ZM8.16676 22.1668C8.16676 20.8804 7.1204 19.8335 5.83352 19.8335C4.54664 19.8335 3.5 20.8804 3.5 22.1668C3.5 23.4531 4.54636 24.5 5.83324 24.5C7.12012 24.5 8.16676 23.4531 8.16676 22.1668ZM22.1668 8.16676C20.8804 8.16676 19.8335 7.1204 19.8335 5.83352C19.8335 4.54664 20.8804 3.50028 22.1668 3.50028C23.4531 3.50028 24.5 4.54664 24.5 5.83352C24.5 7.1204 23.4531 8.16676 22.1668 8.16676ZM22.1668 8.16676C20.8804 8.16676 19.8335 7.1204 19.8335 5.83352C19.8335 4.54664 20.8804 3.50028 22.1668 3.50028C23.4531 3.50028 24.5 4.54664 24.5 5.83352C24.5 7.1204 23.4531 8.16676 22.1668 8.16676ZM24.5 22.1668C24.5 20.8804 23.4531 19.8335 22.1668 19.8335C20.8804 19.8335 19.8335 20.8804 19.8335 22.1668C19.8335 23.4531 20.8804 24.5 22.1668 24.5C23.4531 24.5 24.5 23.4531 24.5 22.1668ZM24.5 22.1668C24.5 20.8804 23.4531 19.8335 22.1668 19.8335C20.8804 19.8335 19.8335 20.8804 19.8335 22.1668C19.8335 23.4531 20.8804 24.5 22.1668 24.5C23.4531 24.5 24.5 23.4531 24.5 22.1668ZM24.5 14C24.5 12.7131 23.4531 11.6668 22.1668 11.6668C20.8804 11.6668 19.8335 12.7131 19.8335 14C19.8335 15.2863 20.8804 16.3332 22.1668 16.3332C23.4531 16.3332 24.5 15.2863 24.5 14ZM14 16.3332C12.7131 16.3332 11.6668 15.2863 11.6668 14C11.6668 12.7131 12.7131 11.6668 14 11.6668C15.2863 11.6668 16.3332 12.7131 16.3332 14C16.3332 15.2863 15.2863 16.3332 14 16.3332Z" fill="black"/>
</svg>
