<svg width="44" height="44" viewBox="0 0 44 44" fill="none" xmlns="http://www.w3.org/2000/svg">
<g clip-path="url(#clip0_527_1286)">
<path d="M43.1405 3.43798H39.3594V0.859862C39.3594 0.385316 38.9746 0.000488281 38.5 0.000488281H19.2506C18.7759 0.000488281 18.3912 0.385316 18.3912 0.859862V3.4379H0.859373C0.384741 3.4379 0 3.82272 0 4.29727V7.73468C0 8.20922 0.384741 8.59405 0.859373 8.59405H18.3912V9.10967C18.3912 9.34961 18.4898 9.56635 18.6484 9.72232L24.6793 15.7532C24.8048 15.8787 24.9652 15.9607 25.1376 15.9911V19.2486C25.1376 19.5511 25.2966 19.8312 25.5562 19.9863L28.0164 21.4564V22.3716C28.0164 23.9674 26.7182 25.2655 25.1225 25.2655H9.42277C8.94814 25.2655 8.5634 25.6504 8.5634 26.1249C8.5634 26.5995 8.94814 26.9843 9.42277 26.9843H25.1226C27.666 26.9843 29.7353 24.9151 29.7353 22.3716V21.4564L32.1955 19.9863C32.4551 19.8312 32.6141 19.5511 32.6141 19.2486V15.9911C32.7865 15.9607 32.947 15.8787 33.0724 15.7532L39.1083 9.71742C39.1091 9.71665 39.1091 9.71579 39.1099 9.71502C39.2641 9.55964 39.3595 9.34583 39.3595 9.10976V8.59414H43.1406C43.6153 8.59414 44 8.20931 44 7.73476V4.29735C43.9999 3.82272 43.6152 3.43798 43.1405 3.43798ZM18.3912 6.87539H1.71875V5.15664H18.3912V6.87539ZM30.8954 18.761L28.876 19.9677L26.8565 18.761V16.0049H30.8955V18.761H30.8954ZM32.1088 14.2862H31.7546H25.997H25.6428L21.3257 9.96905H36.4259L32.1088 14.2862ZM37.6407 8.2503H20.1099V5.84414H30.0932C30.5678 5.84414 30.9526 5.45931 30.9526 4.98477C30.9526 4.51022 30.5678 4.12539 30.0932 4.12539H20.1099V1.71923H37.6406V8.2503H37.6407ZM42.2812 6.87539H39.3594V5.15664H42.2812V6.87539Z" fill="black"/>
<path d="M33.7472 4.12549H33.7344C33.2597 4.12549 32.875 4.51032 32.875 4.98486C32.875 5.45941 33.2597 5.84423 33.7344 5.84423H33.7472C34.2218 5.84423 34.6066 5.45941 34.6066 4.98486C34.6066 4.51032 34.2218 4.12549 33.7472 4.12549Z" fill="black"/>
<path d="M31.4162 35.6578C31.2563 35.498 31.0346 35.406 30.8086 35.406C30.5826 35.406 30.3609 35.4979 30.201 35.6578C30.0412 35.8176 29.9492 36.0394 29.9492 36.2654C29.9492 36.4914 30.0412 36.7131 30.201 36.8729C30.3609 37.0327 30.5826 37.1248 30.8086 37.1248C31.0346 37.1248 31.2563 37.0328 31.4162 36.8729C31.576 36.7131 31.668 36.4914 31.668 36.2654C31.668 36.0394 31.576 35.8176 31.4162 35.6578Z" fill="black"/>
<path d="M38.5001 35.406H34.719C34.2444 35.406 33.8596 35.7908 33.8596 36.2654C33.8596 36.7399 34.2444 37.1248 34.719 37.1248H37.6408V42.2809H6.36035V37.1248H27.1567C27.6313 37.1248 28.016 36.7399 28.016 36.2654C28.016 35.7908 27.6313 35.406 27.1567 35.406H5.50098C5.02634 35.406 4.6416 35.7908 4.6416 36.2654V43.1402C4.6416 43.6147 5.02634 43.9996 5.50098 43.9996H38.5001C38.9748 43.9996 39.3595 43.6147 39.3595 43.1402V36.2654C39.3595 35.7908 38.9748 35.406 38.5001 35.406Z" fill="black"/>
<path d="M38.5001 28.7029H5.50098C5.02634 28.7029 4.6416 29.0877 4.6416 29.5623V32.9997C4.6416 33.4742 5.02634 33.859 5.50098 33.859H38.5001C38.9748 33.859 39.3595 33.4742 39.3595 32.9997V29.5623C39.3595 29.0877 38.9748 28.7029 38.5001 28.7029ZM37.6409 32.1403H6.36035V30.4215H37.6408V32.1403H37.6409Z" fill="black"/>
<path d="M6.10855 25.5174C5.94871 25.3576 5.72699 25.2656 5.50098 25.2656C5.27496 25.2656 5.05324 25.3575 4.8934 25.5174C4.73355 25.6773 4.6416 25.899 4.6416 26.125C4.6416 26.351 4.73355 26.5727 4.8934 26.7325C5.05324 26.8924 5.27496 26.9844 5.50098 26.9844C5.72699 26.9844 5.94871 26.8924 6.10855 26.7325C6.2684 26.5727 6.36035 26.351 6.36035 26.125C6.36035 25.899 6.2684 25.6772 6.10855 25.5174Z" fill="black"/>
</g>
<defs>
<clipPath id="clip0_527_1286">
<rect width="44" height="44" fill="white"/>
</clipPath>
</defs>
</svg>
