<svg width="44" height="44" viewBox="0 0 44 44" fill="none" xmlns="http://www.w3.org/2000/svg">
<g clip-path="url(#clip0_527_1262)">
<path d="M37.5563 25.3499C33.4011 21.1947 27.8764 18.9062 22 18.9062C16.1236 18.9062 10.5989 21.1947 6.44368 25.3499C2.28843 29.5052 0 35.0299 0 40.9062C0 41.4283 0.423242 41.8516 0.945312 41.8516H9.96875C10.4908 41.8516 10.9141 41.4283 10.9141 40.9062C10.9141 34.7934 15.8872 29.8203 22 29.8203C28.1128 29.8203 33.0859 34.7934 33.0859 40.9062C33.0859 41.4283 33.5092 41.8516 34.0312 41.8516H43.0547C43.5768 41.8516 44 41.4283 44 40.9062C44 35.0299 41.7116 29.5052 37.5563 25.3499ZM9.05756 39.9609H1.91263C2.22398 33.262 5.82862 27.409 11.1405 23.9876L14.7124 30.1743C11.5259 32.3452 9.35155 35.8967 9.05756 39.9609ZM16.3482 29.2264L12.7763 23.0397C15.5405 21.6068 18.6775 20.7969 22 20.7969C25.3225 20.7969 28.4595 21.6068 31.2238 23.0396L27.6519 29.2263C25.9425 28.3958 24.0247 27.9297 22 27.9297C19.9754 27.9297 18.0575 28.3958 16.3482 29.2264ZM34.9425 39.9609C34.6485 35.8966 32.4742 32.3452 29.2877 30.1744L32.8596 23.9876C38.1715 27.4091 41.776 33.262 42.0874 39.9609H34.9425Z" fill="black"/>
<path d="M24.9211 10.8811C24.7966 10.8811 24.6715 10.8566 24.5532 10.8066L22.0001 9.72744L19.4469 10.8066C19.1418 10.9355 18.7914 10.8953 18.5232 10.7006C18.2552 10.5059 18.1087 10.185 18.137 9.85488L18.3744 7.0932L16.559 4.99847C16.342 4.74805 16.272 4.40232 16.3744 4.08719C16.4768 3.77205 16.7367 3.53358 17.0595 3.45855L19.7593 2.83087L21.1906 0.457188C21.3617 0.173508 21.6687 0 22.0001 0C22.3315 0 22.6385 0.173508 22.8096 0.457188L24.2409 2.83095L26.9407 3.45864C27.2634 3.53366 27.5233 3.77214 27.6257 4.08727C27.7281 4.40241 27.658 4.74805 27.4411 4.99855L25.6259 7.09328L25.8631 9.85497C25.8915 10.1851 25.745 10.5059 25.4769 10.7007C25.3127 10.8198 25.1177 10.8811 24.9211 10.8811ZM19.0146 4.9451L20.0648 6.15699C20.232 6.35009 20.3141 6.60258 20.2922 6.85704L20.1548 8.45479L21.6319 7.83045C21.8671 7.73094 22.1327 7.73094 22.3679 7.83045L23.845 8.45479L23.7077 6.85704C23.6858 6.60258 23.7678 6.35009 23.9351 6.15699L24.9852 4.9451L23.4233 4.58202C23.1745 4.52418 22.9597 4.36812 22.8278 4.14932L21.9998 2.77604L21.1717 4.14932C21.0398 4.36803 20.8251 4.52409 20.5763 4.58202L19.0146 4.9451Z" fill="black"/>
<path d="M12.4603 18.2188C12.3357 18.2188 12.2106 18.1942 12.0924 18.1442L9.53915 17.0651L6.98595 18.1442C6.68087 18.2732 6.33042 18.233 6.06229 18.0382C5.79425 17.8435 5.64773 17.5226 5.67609 17.1925L5.91336 14.4308L4.0981 12.3361C3.88111 12.0857 3.81107 11.7401 3.91351 11.4249C4.01586 11.1098 4.27574 10.8713 4.59843 10.7963L7.29824 10.1686L8.72953 7.79483C8.90063 7.51115 9.20769 7.33765 9.53906 7.33765C9.87044 7.33765 10.1775 7.51115 10.3486 7.79483L11.7799 10.1685L14.4798 10.7962C14.8025 10.8712 15.0624 11.1097 15.1647 11.4248C15.2671 11.74 15.197 12.0856 14.9801 12.336L13.1648 14.4308L13.4021 17.1924C13.4305 17.5225 13.284 17.8434 13.0159 18.0382C12.8519 18.1574 12.6569 18.2188 12.4603 18.2188ZM6.55368 12.2827L7.60384 13.4946C7.77107 13.6877 7.85314 13.9401 7.83123 14.1947L7.6939 15.7924L9.17099 15.1681C9.4062 15.0687 9.67175 15.0687 9.90696 15.1681L11.3841 15.7924L11.2467 14.1947C11.2249 13.9402 11.3069 13.6877 11.4741 13.4946L12.5244 12.2827L10.9624 11.9196C10.7136 11.8617 10.4988 11.7057 10.3669 11.4869L9.53915 10.1137L8.71106 11.487C8.57914 11.7057 8.36438 11.8617 8.11559 11.9196L6.55368 12.2827Z" fill="black"/>
<path d="M37.382 18.2188C37.2575 18.2188 37.1324 18.1942 37.0141 18.1442L34.461 17.0651L31.9078 18.1442C31.6027 18.2732 31.2523 18.233 30.9842 18.0382C30.7161 17.8435 30.5696 17.5226 30.598 17.1925L30.8352 14.4308L29.02 12.3361C28.803 12.0857 28.7329 11.7401 28.8354 11.4249C28.9377 11.1098 29.1976 10.8713 29.5203 10.7963L32.2201 10.1686L33.6514 7.79483C33.8225 7.51115 34.1296 7.33765 34.4609 7.33765C34.7923 7.33765 35.0994 7.51115 35.2705 7.79483L36.7018 10.1685L39.4017 10.7962C39.7244 10.8712 39.9842 11.1097 40.0866 11.4248C40.1889 11.74 40.1189 12.0856 39.902 12.336L38.0866 14.4308L38.324 17.1924C38.3524 17.5225 38.2058 17.8434 37.9378 18.0382C37.7737 18.1574 37.5787 18.2188 37.382 18.2188ZM31.4756 12.2827L32.5257 13.4946C32.6929 13.6877 32.775 13.9401 32.7531 14.1947L32.6158 15.7924L34.0929 15.1681C34.3281 15.0687 34.5936 15.0687 34.8288 15.1681L36.3059 15.7924L36.1686 14.1947C36.1468 13.9402 36.2288 13.6877 36.396 13.4946L37.4462 12.2827L35.8842 11.9196C35.6354 11.8617 35.4207 11.7057 35.2888 11.4869L34.4608 10.1137L33.6327 11.487C33.5008 11.7057 33.286 11.8617 33.0372 11.9196L31.4756 12.2827Z" fill="black"/>
<path d="M22 39.2734C21.4779 39.2734 21.0547 38.8502 21.0547 38.3281V24.5388C21.0547 24.0167 21.4779 23.5935 22 23.5935C22.5221 23.5935 22.9453 24.0167 22.9453 24.5388V38.3281C22.9453 38.8502 22.5221 39.2734 22 39.2734Z" fill="black"/>
<path d="M22 44C20.2941 44 18.9062 42.6122 18.9062 40.9062C18.9062 39.2003 20.2941 37.8125 22 37.8125C23.7059 37.8125 25.0938 39.2003 25.0938 40.9062C25.0937 42.6122 23.7059 44 22 44ZM22 39.7031C21.3366 39.7031 20.7969 40.2428 20.7969 40.9062C20.7969 41.5696 21.3366 42.1094 22 42.1094C22.6634 42.1094 23.2031 41.5697 23.2031 40.9062C23.203 40.2429 22.6634 39.7031 22 39.7031Z" fill="black"/>
</g>
<defs>
<clipPath id="clip0_527_1262">
<rect width="44" height="44" fill="white"/>
</clipPath>
</defs>
</svg>
