<svg width="44" height="44" viewBox="0 0 44 44" fill="none" xmlns="http://www.w3.org/2000/svg">
<path fill-rule="evenodd" clip-rule="evenodd" d="M16.1876 30.0294V26.1372H15.5947L11.9345 28.4571C11.6767 28.6117 11.3416 28.6117 11.1097 28.4571L7.42365 26.1372H6.85658V30.0294H16.1876ZM37.4787 40.907H6.49571C5.49044 40.907 5.49044 39.3604 6.49571 39.3604H37.4787C38.5098 39.3604 38.5098 40.907 37.4787 40.907ZM43.201 37.9685H0.799165C0.335194 37.9685 0.0258789 37.6076 0.0258789 37.1952V29.7974C0.0258789 26.9363 2.34574 24.5906 5.23268 24.5906H7.06279L7.42365 23.0698C5.72242 22.1161 4.56249 20.286 4.56249 18.1981V16.4969C1.98487 16.4969 2.34574 16.7547 2.34574 13.2749C2.34574 12.7851 2.73238 12.5016 3.24791 12.5016C3.55722 9.228 5.7482 6.44417 8.86712 5.41312L8.76402 3.9181C8.73824 3.4799 9.07333 3.09326 9.5373 3.09326H13.5068C13.945 3.09326 14.3059 3.4799 14.2801 3.9181L14.1512 5.41312C17.2702 6.44417 19.4869 9.228 19.7962 12.5016C20.3118 12.5016 20.6984 12.7851 20.6984 13.2749C20.6984 16.7547 21.0335 16.4969 18.4817 16.4969V18.1981C18.4559 20.286 17.2959 22.1161 15.5947 23.0698L15.9814 24.5906H17.7857C19.4869 24.5906 21.0335 25.3897 21.9872 26.7043C22.9409 25.4155 24.4875 24.5906 26.1887 24.5906H28.0189L28.4055 23.0698C26.6785 22.1161 25.5186 20.286 25.5186 18.1981V16.4969C22.9667 16.4969 23.3018 16.7547 23.3018 13.2749C23.3018 12.7851 23.6884 12.5016 24.204 12.5016C24.5133 9.228 26.7043 6.44417 29.8232 5.41312L29.7201 3.9181C29.6943 3.4799 30.0552 3.09326 30.4934 3.09326H34.4629C34.9011 3.09326 35.262 3.4799 35.2362 3.9181L35.1331 5.41312C38.252 6.44417 40.443 9.228 40.7523 12.5016C41.2678 12.5016 41.6545 12.7851 41.6545 13.2749C41.6545 16.7547 41.9896 16.4969 39.4377 16.4969V18.1981C39.4377 20.286 38.2778 22.1161 36.5508 23.0698L36.9374 24.5906H38.7418C41.6287 24.5906 43.9743 26.9363 43.9743 29.7974V37.221C43.9743 37.6076 43.6392 37.9685 43.201 37.9685ZM1.57245 33.4834H4.38206V30.8027C4.38206 30.2872 4.79448 30.0294 5.31 30.0294V26.1372C3.19635 26.1372 1.57245 27.7611 1.57245 29.7974V33.4834ZM18.6363 33.4834H20.9819V29.7974C20.9819 29.3077 21.0335 28.8179 21.1882 28.3797C20.5953 27.0136 19.2807 26.1372 17.7857 26.1372H17.7341V30.0294C18.2497 30.0294 18.6363 30.2872 18.6363 30.8027V33.4834ZM22.5285 33.4834H25.3639V30.8027C25.3639 30.2872 25.7505 30.0294 26.2661 30.0294V26.1372C24.1266 26.1372 22.5285 27.8127 22.5285 29.7974V33.4834ZM42.4278 36.4219V35.03H1.57245V36.4219H42.4278ZM12.8624 23.7916C11.7541 23.7916 9.87239 23.8689 8.8929 23.6369L8.53203 25.003L11.5221 26.8847L14.4863 25.003L14.1512 23.6369C13.7388 23.74 13.3006 23.7916 12.8624 23.7916ZM19.1518 14.9503V14.0482H3.89231V14.9503H19.1518ZM6.10907 16.4969V18.1981C6.10907 20.4664 7.96495 22.245 10.1559 22.245C11.3674 22.245 13.378 22.3996 14.3575 21.9615C15.8783 21.2913 16.9351 19.9509 16.9351 18.1981V16.4969H6.10907ZM10.7488 9.79508H12.2954L12.6562 4.63983H10.3621L10.7488 9.79508ZM8.996 7.01125C6.70192 7.93919 5.07802 10.0271 4.79448 12.5016H18.2239C17.9404 10.0271 16.3422 7.93919 14.0481 7.01125L13.7904 10.6457C13.7646 11.0323 13.4295 11.3417 13.0171 11.3417H10.0271C9.61463 11.3417 9.27954 11.0323 9.25377 10.6457L8.996 7.01125ZM12.4758 21.5233H10.5684C9.5373 21.5233 9.5373 19.9767 10.5684 19.9767H12.4758C13.4811 19.9767 13.4811 21.5233 12.4758 21.5233ZM5.92863 33.4834H17.0897V31.576H5.92863V33.4834ZM33.8185 23.7916C32.7101 23.7916 30.8285 23.8689 29.849 23.6369L29.4881 25.003L32.4781 26.8847L35.4424 25.003L35.1073 23.6369C34.6949 23.74 34.2567 23.7916 33.8185 23.7916ZM40.1079 14.9503V14.0482H24.8484V14.9503H40.1079ZM27.0651 16.4969V18.1981C27.0651 20.4664 28.921 22.245 31.1378 22.245C32.3235 22.245 34.3598 22.3996 35.3135 21.9615C36.8343 21.2913 37.8911 19.9509 37.8911 18.1981V16.4969H27.0651ZM28.3797 26.1372H27.8126V30.0294H37.1436V26.1372H36.5766L32.8906 28.4571C32.6328 28.6117 32.3235 28.6117 32.0657 28.4571L28.3797 26.1372ZM39.5924 33.4834H42.4278V29.7974C42.4278 27.7611 40.8039 26.1372 38.6902 26.1372V30.0294C39.2057 30.0294 39.5924 30.2872 39.5924 30.8027V33.4834ZM29.9521 7.01125C27.658 7.93919 26.0341 10.0271 25.7505 12.5016H39.2057C38.9222 10.0271 37.2983 7.93919 35.0042 7.01125L34.7464 10.6457C34.7207 11.0323 34.3856 11.3417 33.9732 11.3417H30.9831C30.5707 11.3417 30.2356 11.0323 30.2098 10.6457L29.9521 7.01125ZM31.7049 9.79508H33.2514L33.6381 4.63983H31.3182L31.7049 9.79508ZM33.4319 21.5233H31.5244C30.4934 21.5233 30.4934 19.9767 31.5244 19.9767H33.4319C34.4371 19.9767 34.4371 21.5233 33.4319 21.5233ZM26.9105 33.4834H38.0458V31.576H26.9105V33.4834Z" fill="black"/>
</svg>
