<svg width="100" height="100" viewBox="0 0 100 100" fill="none" xmlns="http://www.w3.org/2000/svg">
<g clip-path="url(#clip0_593_150)">
<path d="M59.7703 60.6771C60.1635 61.5002 60.0516 62.4523 59.4783 63.1619L49.4371 75.5984C48.9779 76.1672 48.3086 76.4725 47.6211 76.4727C47.265 76.4727 46.9041 76.3908 46.5648 76.2213C45.5705 75.7244 45.0662 74.626 45.3383 73.5502L47.0967 66.6014H42.3463C41.4338 66.6014 40.6229 66.09 40.2297 65.267C39.8365 64.4441 39.9486 63.492 40.5221 62.7822L50.5631 50.3455C51.2602 49.482 52.4412 49.2262 53.4355 49.7229C54.4299 50.2195 54.9342 51.3182 54.6621 52.3939L52.9037 59.3428H57.6539C58.566 59.3428 59.3771 59.8541 59.7703 60.6771ZM99.8047 78.2557V98.2422C99.8047 99.1051 99.1051 99.8047 98.2422 99.8047H15.2727H8.43672H1.75781C0.894922 99.8047 0.195312 99.1051 0.195312 98.2422V78.2557C0.195312 77.3928 0.894922 76.6932 1.75781 76.6932H6.87422V62.9721C6.87422 60.2258 9.1084 57.9916 11.8547 57.9916H18.7865V47.6881C18.7865 46.8252 19.4861 46.1256 20.349 46.1256H25.2705L26.1297 36.0193H25.8529C24.99 36.0193 24.2904 35.3197 24.2904 34.4568V29.543C24.2904 28.6801 24.99 27.9805 25.8529 27.9805H29.0385V25.3461C27.4236 25.2088 26.0477 24.1346 25.4881 22.6592C22.6043 21.6758 20.6035 18.9479 20.6035 15.8211C20.6035 13.7418 21.4889 11.783 23.0408 10.41C23.4824 9.79336 24.0727 9.31914 24.7469 9.02266C24.8992 6.75469 26.5982 4.90332 28.7953 4.51777C29.4941 2.03145 31.7918 0.195312 34.4852 0.195312C37.5613 0.195312 40.0959 2.55879 40.3689 5.56484C42.767 5.8875 44.6223 7.94727 44.6223 10.4324C44.6223 10.7451 44.5926 11.0551 44.5344 11.359C45.591 12.1229 46.2623 13.3648 46.2623 14.7404C46.2623 15.3758 46.1207 15.99 45.8527 16.5469C46.5248 17.6646 46.8863 18.9518 46.8863 20.2715C46.8863 24.2557 43.6449 27.4971 39.6605 27.4971C39.5199 27.4971 39.3799 27.493 39.2404 27.485V27.9803H42.7531C43.616 27.9803 44.3156 28.6799 44.3156 29.5428V34.4566C44.3156 35.3195 43.616 36.0191 42.7531 36.0191H42.4764L43.3355 46.1254H57.7807L58.6398 36.0191H58.3631C57.5002 36.0191 56.8006 35.3195 56.8006 34.4566V29.543C56.8006 28.6801 57.5002 27.9805 58.3631 27.9805H61.5486V25.3461C59.9336 25.2088 58.5578 24.1346 57.9982 22.6592C55.1145 21.6758 53.1137 18.9479 53.1137 15.8211C53.1137 13.7418 53.999 11.783 55.551 10.41C55.9926 9.79355 56.5828 9.31894 57.257 9.02266C57.4094 6.75449 59.1084 4.90332 61.3055 4.51777C62.0043 2.03145 64.3019 0.195312 66.9953 0.195312C70.0715 0.195312 72.6061 2.55879 72.8789 5.56484C75.277 5.8875 77.1322 7.94727 77.1322 10.4324C77.1322 10.7449 77.1025 11.0551 77.0443 11.359C78.1012 12.1229 78.7723 13.3646 78.7723 14.7404C78.7723 15.3758 78.6307 15.99 78.3627 16.5471C79.0348 17.6646 79.3963 18.9518 79.3963 20.2715C79.3963 24.2557 76.1549 27.4971 72.1707 27.4971C72.0301 27.4971 71.89 27.493 71.7506 27.485V27.9803H75.2633C76.1262 27.9803 76.8258 28.6799 76.8258 29.5428V34.4566C76.8258 35.3195 76.1262 36.0191 75.2633 36.0191H74.9865L75.8457 46.1254H79.651C80.5139 46.1254 81.2135 46.825 81.2135 47.6879V57.9914H88.1453C90.8916 57.9914 93.1258 60.2256 93.1258 62.9719V76.693H98.2422C99.1051 76.6932 99.8047 77.3928 99.8047 78.2557ZM6.87422 90.1396C5.71016 90.1326 4.52227 90.1281 3.32031 90.126V96.6797H6.87422V90.1396ZM6.87422 79.8182H3.32031V81.5063C4.52207 81.5084 5.70996 81.5129 6.87422 81.5199V79.8182ZM59.9256 32.8943H73.2994C73.3066 32.8943 73.3139 32.8941 73.3211 32.8943H73.7008V31.1055H59.9256V32.8943ZM71.8504 36.0193H61.7762L60.917 46.1256H72.7096L71.8504 36.0193ZM39.34 36.0193H29.2658L28.4066 46.1256H40.199L39.34 36.0193ZM29.3918 21.4844C29.3918 21.7502 29.3254 22.0008 29.2082 22.2199C29.4314 22.2592 29.6707 22.2242 29.8738 22.1178C30.3582 21.8629 30.9406 21.8803 31.409 22.1631C31.8773 22.4459 32.1637 22.9533 32.1637 23.5006V27.9807H36.1154V25.6139C36.1129 25.5096 36.1211 25.4043 36.1402 25.299C36.1732 25.1158 36.2381 24.9441 36.3287 24.7893C36.4439 24.5916 36.5986 24.4266 36.7785 24.3C36.9645 24.1689 37.1803 24.0773 37.4139 24.0375C37.5914 24.0072 37.7758 24.007 37.9592 24.0406C38.0611 24.0594 38.1598 24.0877 38.2539 24.1252C38.7031 24.2895 39.1762 24.3727 39.6604 24.3727C41.9215 24.3727 43.7611 22.5332 43.7611 20.2721C43.7611 19.2922 43.4105 18.3447 42.7734 17.6027C42.7676 17.5961 42.7617 17.5895 42.7561 17.5824C41.9756 16.6855 40.8482 16.1713 39.6605 16.1713C38.7977 16.1713 38.098 15.4717 38.098 14.6088C38.098 13.7459 38.7977 13.0463 39.6605 13.0463C40.2723 13.0463 40.8746 13.1236 41.4553 13.2725C41.3262 13.1412 41.2197 12.9865 41.1428 12.8137C40.9332 12.3439 40.9684 11.801 41.2365 11.3621C41.407 11.0834 41.4969 10.7621 41.4969 10.4326C41.4969 9.44766 40.6955 8.64629 39.7105 8.64629C39.5225 8.64629 39.3369 8.67539 39.1594 8.73281C38.6137 8.90899 38.0152 8.77266 37.6002 8.37676C37.1852 7.98105 37.0203 7.38945 37.1709 6.83613C37.2354 6.59902 37.268 6.35254 37.268 6.10352C37.268 4.56895 36.0195 3.32051 34.485 3.32051C32.9715 3.32051 31.7234 4.55137 31.7025 6.06406C31.6965 6.51445 31.4963 6.94004 31.1533 7.23203C30.8105 7.52402 30.3588 7.65371 29.9129 7.58848C29.8242 7.57559 29.7348 7.56875 29.6469 7.56875C28.9322 7.56875 28.3143 7.99043 28.0289 8.59824C29.7789 8.64609 31.442 9.32187 32.7314 10.5131C33.3652 11.0986 33.4043 12.0873 32.8187 12.7211C32.2332 13.3551 31.2445 13.3941 30.6107 12.8084C29.8514 12.1068 28.8635 11.7207 27.8289 11.7207C26.8857 11.7207 25.9668 12.048 25.2379 12.643C25.2225 12.6561 25.2068 12.6693 25.191 12.6816C24.2609 13.4641 23.7281 14.6064 23.7281 15.8213C23.7281 17.7881 25.1219 19.477 27.0465 19.8473C27.066 19.8506 27.0854 19.8541 27.1045 19.8582C27.343 19.9006 27.5863 19.9221 27.8287 19.9221C28.6922 19.9219 29.3918 20.6215 29.3918 21.4844ZM21.9115 76.6932H78.0885V49.2506H21.9115V76.6932ZM16.8352 67.9523V76.6932H18.7865V67.9523H16.8352ZM83.1648 94.9889C70.8275 94.9244 63.9283 94.0576 55.992 93.0598C47.1398 91.9467 37.1342 90.6891 16.8352 90.2693V96.6797H83.1648V94.9889ZM83.1648 79.8182H16.8352V81.6486C37.3398 82.0703 47.4439 83.3404 56.382 84.4645C64.2127 85.4492 71.0232 86.3045 83.1648 86.3691V79.8182ZM83.1648 67.9523H81.2135V76.6932H83.1648V67.9523ZM96.6797 94.7861C95.4674 94.8244 94.2797 94.8574 93.1258 94.8852V96.6797H96.6797V94.7861ZM96.6797 79.8182H93.1258V86.2645C94.2781 86.2367 95.4664 86.2033 96.6797 86.1648V79.8182Z" fill="#FFDB5A"/>
</g>
<defs>
<clipPath id="clip0_593_150">
<rect width="100" height="100" fill="white"/>
</clipPath>
</defs>
</svg>
