<svg width="100" height="100" viewBox="0 0 100 100" fill="none" xmlns="http://www.w3.org/2000/svg">
<path d="M55.0781 22.4062L47.7969 30.6094L44.7969 27.9063L42.7031 30.2344L46.875 33.9844C47.1562 34.25 47.5312 34.3906 47.9219 34.3906H48.0156C48.4375 34.375 48.8125 34.1875 49.0938 33.875L57.4219 24.5L55.0781 22.4219V22.4062Z" fill="#FFDB5A"/>
<path d="M92.1875 50.3438V22.6094C92.1875 21.5469 91.75 20.5781 91.0469 19.875C90.3438 19.1875 89.3594 18.75 88.2813 18.75C86.125 18.75 84.375 20.4688 84.375 22.6094V33.5938C84.875 33.9531 85.3281 34.3906 85.6719 34.8906C86.3125 35.7812 86.6719 36.875 86.6719 38.0156C86.6719 38.2344 86.6719 38.4688 83.125 53.7969C82.9375 54.6406 82.0938 55.1562 81.2656 54.9688C80.4219 54.7812 79.8906 53.9375 80.0938 53.0938C81.5 47.0156 83.3281 39.0312 83.5625 37.9062C83.5469 37.4531 83.3906 37.0156 83.125 36.6406C82.7656 36.1094 82.2344 35.7656 81.5938 35.6406C80.3281 35.3906 79.0781 36.1875 78.75 37.4531L75.4375 51.1875C75.0625 52.7656 74.2188 54.1562 73.0156 55.2188L71.5313 56.5156C67.9375 59.4219 65.7813 64.2812 65.7344 69.5938L65.6563 75.0156H59.3906C58.5312 75.0156 57.8281 75.7656 57.8281 76.7031L56.2656 95.2188C56.2656 96.1406 56.9688 96.9062 57.8281 96.9062H89.0781C89.9375 96.9062 90.6406 96.1562 90.6406 95.2188L92.2031 76.7031C92.2031 75.7812 91.5 75.0156 90.6406 75.0156H86.3438L91.8906 53.0625C92.0938 52.2969 92.2031 51.1719 92.2031 50.3594L92.1875 50.3438ZM89.0625 78.125L87.5 93.75H59.375L60.9375 78.125H89.0625Z" fill="#FFDB5A"/>
<path d="M7.8125 76.6875L9.375 95.2031C9.375 96.125 10.0781 96.8906 10.9375 96.8906H42.1875C43.0469 96.8906 43.75 96.1406 43.75 95.2031L42.1875 76.6875C42.1875 75.7656 41.4844 75 40.625 75H34.3594L34.2812 69.5781C34.2344 64.2812 32.0938 59.4062 28.4844 56.5L27 55.2031C25.7969 54.1406 24.9531 52.75 24.5781 51.1719L21.2656 37.4375C20.9531 36.1719 19.7031 35.375 18.4219 35.625C17.7969 35.75 17.25 36.0938 16.8906 36.625C16.625 37 16.4688 37.4219 16.4531 37.8906C16.6719 39.0156 18.5156 47 19.9219 53.0781C20.1094 53.9219 19.5938 54.7656 18.75 54.9531C17.9062 55.1406 17.0781 54.625 16.8906 53.7812C13.3438 38.4531 13.3438 38.2031 13.3438 38C13.3438 36.8594 13.7031 35.7656 14.3438 34.875C14.6875 34.3594 15.1406 33.9375 15.6406 33.5781V22.5938C15.6406 20.4688 13.8906 18.7344 11.7344 18.7344C10.6563 18.7344 9.67187 19.1719 8.96875 19.8594C8.26562 20.5469 7.82813 21.5313 7.82813 22.5938V50.3281C7.82813 51.125 7.9375 52.25 8.14063 53.0312L13.6875 74.9844H9.39063C8.53125 74.9844 7.82813 75.7344 7.82813 76.6719L7.8125 76.6875ZM39.0625 78.125L40.625 93.75H12.5L10.9375 78.125H39.0625Z" fill="#FFDB5A"/>
<path d="M50 47.4688C53.2812 47.4688 56.0156 49.9375 56.4062 53.125C58.8125 52.5 61.0781 51.5469 63.1562 50.3281C61.1719 47.7969 61.3437 44.1406 63.6875 41.8125C66.0156 39.4688 69.6719 39.2969 72.2031 41.2812C73.4219 39.2031 74.375 36.9219 75 34.5312C71.8125 34.1406 69.3438 31.4219 69.3438 28.125C69.3438 24.8281 71.8125 22.1094 75 21.7188C74.375 19.3125 73.4219 17.0469 72.2031 14.9688C69.6719 16.9531 66.0156 16.7812 63.6875 14.4375C61.3437 12.1094 61.1719 8.45312 63.1562 5.92188C61.0781 4.70312 58.7969 3.75 56.4062 3.125C56.0156 6.3125 53.2969 8.78125 50 8.78125C46.7031 8.78125 43.9844 6.3125 43.5938 3.125C41.1875 3.75 38.9219 4.70312 36.8438 5.92188C38.8281 8.45312 38.6562 12.1094 36.3125 14.4375C33.9844 16.7812 30.3281 16.9531 27.7969 14.9688C26.5781 17.0469 25.625 19.3281 25 21.7188C28.1875 22.1094 30.6563 24.8281 30.6563 28.125C30.6563 31.4219 28.1875 34.1406 25 34.5312C25.625 36.9375 26.5781 39.2031 27.7969 41.2812C30.3281 39.2969 33.9844 39.4688 36.3125 41.8125C38.6562 44.1406 38.8281 47.7969 36.8438 50.3281C38.9219 51.5469 41.2031 52.5 43.5938 53.125C43.9844 49.9375 46.7031 47.4688 50 47.4688ZM37.5 28.125C37.5 21.2344 43.1094 15.625 50 15.625C56.8906 15.625 62.5 21.2344 62.5 28.125C62.5 35.0156 56.8906 40.625 50 40.625C43.1094 40.625 37.5 35.0156 37.5 28.125Z" fill="#FFDB5A"/>
</svg>
