<svg width="87" height="94" viewBox="0 0 87 94" fill="none" xmlns="http://www.w3.org/2000/svg">
<path d="M15.2188 0C12.0781 0 9.53125 2.54687 9.53125 5.6875V37.8438H7.5C6.64063 37.8438 5.9375 38.5469 5.9375 39.4062V46.75H1.5625C0.703125 46.75 0 47.4531 0 48.3125V92.1875C0 93.0469 0.703125 93.75 1.5625 93.75H84.5312C85.3906 93.75 86.0938 93.0469 86.0938 92.1875V48.3125C86.0938 47.4531 85.3906 46.75 84.5312 46.75H80.1562V39.4062C80.1562 38.5469 79.4531 37.8438 78.5938 37.8438H76.5625V5.6875C76.5625 2.54687 74.0156 0 70.875 0C67.7344 0 65.1875 2.54687 65.1875 5.6875V37.8438H63.1719C62.2969 37.8438 61.6094 38.5469 61.6094 39.4062V46.75H52.3281V39.4062C52.3281 38.5469 51.625 37.8438 50.7656 37.8438H48.7344V5.6875C48.7344 2.54687 46.1719 0 43.0469 0C39.9219 0 37.3594 2.54687 37.3594 5.6875V37.8438H35.3281C34.4688 37.8438 33.7656 38.5469 33.7656 39.4062V46.75H24.4844V39.4062C24.4844 38.5469 23.7969 37.8438 22.9219 37.8438H20.9062V5.6875C20.9062 2.54687 18.3438 0 15.2188 0ZM12.6563 5.6875C12.6563 4.26562 13.8125 3.125 15.2188 3.125C16.625 3.125 17.7812 4.26562 17.7812 5.6875V37.8438H12.6563V5.6875ZM82.9688 90.625H38.5625V86.4844H82.9688V90.625ZM68.3125 5.6875C68.3125 4.26562 69.4688 3.125 70.875 3.125C72.2812 3.125 73.4375 4.26562 73.4375 5.6875V37.8438H68.3125V5.6875ZM40.4844 5.6875C40.4844 4.26562 41.6406 3.125 43.0469 3.125C44.4531 3.125 45.6094 4.26562 45.6094 5.6875V37.8438H40.4844V5.6875ZM82.9688 49.875V83.3594H38.5625V64.7656C38.5625 61.9062 36.2344 59.5781 33.375 59.5781H11.7969C8.9375 59.5781 6.60938 61.9062 6.60938 64.7656V90.625H3.125V49.875H82.9688Z" fill="#FFDB5A"/>
</svg>
