<svg width="100" height="100" viewBox="0 0 100 100" fill="none" xmlns="http://www.w3.org/2000/svg">
<path d="M95.7239 44.2438C96.7308 44.2438 97.5417 43.4329 97.5417 42.426V38.8743C97.5417 37.8676 96.7308 37.0471 95.7239 37.0471H88.9749V33.542C88.9749 32.5352 88.1546 31.7243 87.1571 31.7243H85.6749V20.2211H87.1571C88.1546 20.2211 88.9749 19.4008 88.9749 18.394V14.8424C88.9749 13.8356 88.1546 13.0247 87.1571 13.0247H4.27627C3.27881 13.0247 2.4585 13.8356 2.4585 14.8424V18.394C2.4585 19.4008 3.27881 20.2211 4.27627 20.2211H5.7585V31.7243H4.27627C3.27881 31.7243 2.4585 32.5352 2.4585 33.542V37.0936C2.4585 38.1004 3.27881 38.9114 4.27627 38.9114H11.0347V42.4258C11.0347 43.4325 11.8456 44.2436 12.8524 44.2436H14.3253V55.7469H12.8524C11.8456 55.7469 11.0347 56.5672 11.0347 57.5741V61.0792H4.27627C3.27881 61.0792 2.4585 61.8995 2.4585 62.8969V66.4579C2.4585 67.4647 3.27881 68.2756 4.27627 68.2756H5.7585V79.7788H4.27627C3.27881 79.7788 2.4585 80.5991 2.4585 81.5965V85.1575C2.4585 86.1643 3.27881 86.9752 4.27627 86.9752H87.1573C88.1548 86.9752 88.9751 86.1643 88.9751 85.1575V81.5965C88.9751 80.5991 88.1548 79.7788 87.1573 79.7788H85.6751V68.2756H87.1573C88.1548 68.2756 88.9751 67.4647 88.9751 66.4579V62.9434H95.7241C96.731 62.9434 97.5419 62.1325 97.5419 61.1256V57.5741C97.5419 56.5672 96.731 55.7469 95.7241 55.7469H94.2419V44.2436H95.7239V44.2438ZM92.3774 44.2438V55.7471H16.1896V44.2438H92.3774ZM7.62275 20.2213H83.8106V31.7245H7.62275V20.2213ZM4.32275 37.0938L4.27607 33.5887H87.1105L87.1571 37.0471C76.1852 37.0567 21.8759 37.0846 4.32275 37.0938ZM7.62275 68.2756H83.8106V79.7788H7.62275V68.2756ZM87.1106 81.6432L87.1573 85.111L4.32295 85.1577L4.27627 81.6432H87.1106ZM95.6774 57.6114L95.7241 61.0792H12.8989L12.8522 57.6114H95.6774Z" fill="#FFDB5A"/>
</svg>
