<svg width="100" height="100" viewBox="0 0 100 100" fill="none" xmlns="http://www.w3.org/2000/svg">
<path d="M50.0001 48.7656C46.692 48.7656 44.0019 46.0739 44.0019 42.7658C44.0019 39.4577 46.692 36.7676 50.0001 36.7676C53.3082 36.7676 55.9984 39.4577 55.9984 42.7658C55.9984 46.0739 53.3082 48.7656 50.0001 48.7656ZM69.7847 18.8675C74.1228 18.8675 77.6521 15.3381 77.6521 11.0001C77.6521 7.16924 74.899 3.97882 71.2698 3.28131C71.1953 3.26538 71.1237 3.26376 71.0487 3.2589C70.6347 3.19138 70.2175 3.1311 69.7847 3.1311H30.2156C25.8775 3.1311 22.3481 6.66046 22.3481 11.0001C22.3481 14.1557 24.2269 16.8646 26.9148 18.1171C26.9204 18.1208 26.9231 18.1269 26.9288 18.1305C26.9479 18.1425 26.9693 18.1461 26.9886 18.1572C27.0845 18.2006 27.1777 18.2458 27.2756 18.2854C27.3116 18.2973 27.3466 18.3097 27.3832 18.3188C28.2647 18.6613 29.2144 18.8675 30.2156 18.8675H35.3868V26.7985C31.6319 28.9282 29.0879 32.9554 29.0879 37.5717V43.9819C29.0879 47.8043 30.8961 51.474 33.925 53.801L39.1008 57.7805C40.6825 58.9948 42.5503 59.7991 44.5039 60.146V60.585C44.5039 67.0792 47.6518 73.1583 53.1388 77.2583C54.2558 78.096 54.8295 79.4419 54.6724 80.8563C54.4832 82.5699 52.9939 84.0592 51.2666 84.2499C50.1268 84.3842 49.0617 84.0515 48.2042 83.2855C47.3832 82.5501 46.9117 81.4957 46.9117 80.3909C46.9117 76.918 44.0873 74.0937 40.6144 74.0937C37.1416 74.0937 34.3171 76.9181 34.3171 80.3909C34.3171 85.0708 36.3161 89.5493 39.8027 92.6758C42.8239 95.3842 46.7408 96.875 50.8287 96.875C51.4818 96.875 52.1028 96.8399 52.649 96.7712C60.2388 95.9335 66.356 89.8224 67.1953 82.2372C67.8376 76.3397 65.4023 70.7123 60.6813 67.1829C58.4047 65.4724 57.0985 63.0676 57.0985 60.585V59.7689C58.5253 59.329 59.8797 58.6588 61.0658 57.7362L66.1317 53.7949C69.1697 51.4328 70.9123 47.8714 70.9123 44.0201V37.5717C70.9123 32.953 68.3657 28.9235 64.6073 26.7948V18.8675L69.7847 18.8675ZM51.2027 18.8675H61.4824V25.5587C60.5337 25.3252 59.5478 25.1877 58.5283 25.1877H41.472C40.4502 25.1877 39.4622 25.3259 38.5118 25.5603V18.8675H39.2816C39.2926 18.8677 39.3034 18.8721 39.3144 18.8721C39.3269 18.8721 39.3388 18.8678 39.3512 18.8675H51.133C51.1441 18.8677 51.1549 18.8721 51.1659 18.8721C51.1784 18.8721 51.1903 18.8678 51.2027 18.8675ZM30.2859 15.7425L36.2782 6.2561H44.4581L38.4592 15.7425H30.2859ZM67.7873 37.5717V44.0201C67.7873 46.8994 66.4842 49.5636 64.2137 51.3275L64.2122 51.329L59.1462 55.2704C57.5288 56.5277 55.5101 57.2205 53.4623 57.2205H46.6493C44.6199 57.2205 42.6164 56.5399 41.0051 55.3024L35.8293 51.3229C33.5649 49.5834 32.213 46.8399 32.213 43.9819V37.5717C32.213 32.4661 36.3664 28.3127 41.472 28.3127H58.5283C63.6339 28.3127 67.7873 32.4661 67.7873 37.5717ZM62.1858 15.7425H54.0074L60.0051 6.2561H68.1742L62.1858 15.7425Z" fill="#FFDB5A"/>
</svg>
