<svg width="32" height="32" viewBox="0 0 32 32" fill="none" xmlns="http://www.w3.org/2000/svg">
<g clip-path="url(#clip0_527_769)">
<path d="M25.3405 25.5119C25.0682 25.3038 24.6792 25.356 24.4712 25.6281C24.2632 25.9002 24.3152 26.2894 24.5874 26.4973L25.6471 27.3073C25.7591 27.3929 25.8916 27.4347 26.0233 27.4347C26.1929 27.4347 26.3614 27.3654 26.4832 27.2309L28.5087 24.9944C28.7386 24.7405 28.7193 24.3484 28.4654 24.1185C28.2116 23.8886 27.8194 23.908 27.5895 24.1618L25.9469 25.9755L25.3405 25.5119Z" fill="black"/>
<path d="M31.9247 22.202C31.9177 21.8858 31.6738 21.6257 31.3588 21.5982C29.8836 21.4693 28.0683 20.4783 26.7339 19.0739C26.6168 18.9507 26.4544 18.8809 26.2845 18.8809C26.2845 18.8809 26.2844 18.8809 26.2843 18.8809C26.1145 18.8809 25.9521 18.9505 25.8351 19.0735C25.2361 19.7031 24.5408 20.2493 23.8234 20.6723C22.5644 19.2668 21.0149 18.2314 19.1988 17.5796C19.183 17.5732 19.167 17.5675 19.1506 17.5624C19.0091 17.5123 18.866 17.4645 18.7213 17.419C20.2572 15.8872 21.2903 13.8742 21.2903 12.0683V11.0941C22.0164 10.778 22.5255 10.0533 22.5255 9.21162C22.5255 8.33732 21.9752 7.58953 21.203 7.29529C20.8843 4.20088 18.7042 1.59964 15.7095 0.739048C15.621 0.317559 15.2465 0 14.7991 0H12.552C12.1206 0 11.7579 0.295669 11.6532 0.694834C10.1801 1.08767 8.83461 1.92619 7.82581 3.092C6.80189 4.27529 6.16516 5.75301 6.00343 7.2956C5.23084 7.59003 4.68036 8.33763 4.68036 9.21168C4.68036 10.0537 5.19028 10.7785 5.9173 11.0945V12.0684C5.9173 13.8726 6.95059 15.8863 8.48642 17.4192C8.34596 17.4633 8.20687 17.5095 8.06939 17.558C8.04235 17.5657 8.01606 17.5752 7.99045 17.5864C5.95773 18.3197 4.26067 19.5335 2.93165 21.2097C1.65348 22.8219 0.744832 24.8127 0.231008 27.1275C0.0481378 27.9547 -0.0894028 28.9943 0.47465 29.6966C1.02562 30.3826 2.01147 30.4706 2.80887 30.4706H6.86532C7.20781 30.4706 7.48543 30.1929 7.48543 29.8504C7.48543 29.508 7.20781 29.2303 6.86532 29.2303H2.80887C2.06703 29.2303 1.60703 29.1259 1.44165 28.92C1.26647 28.7018 1.26659 28.1888 1.44184 27.3957C2.08632 24.4928 3.66214 20.9405 7.45889 19.147C7.34213 21.2419 8.47724 22.6112 9.19874 23.4803C9.30918 23.6134 9.47016 23.6942 9.64286 23.7035C9.81544 23.713 9.98423 23.6494 10.1082 23.5289L13.603 20.1302L17.0995 23.529C17.2155 23.6417 17.3707 23.7044 17.5317 23.7044C17.5428 23.7044 17.5539 23.7041 17.5651 23.7035C17.7378 23.6942 17.8989 23.6131 18.0093 23.4799C18.7298 22.61 19.8632 21.2399 19.7475 19.1494C20.849 19.6719 21.8222 20.3707 22.6591 21.2412C22.1594 21.4346 21.668 21.5582 21.2098 21.5983C20.895 21.6257 20.6513 21.8856 20.6439 22.2016C20.592 24.4186 20.9615 26.0071 21.9612 27.8662C21.9697 27.882 22.3075 28.4876 22.8339 29.2305H12.4794C12.1369 29.2305 11.8593 29.5081 11.8593 29.8506C11.8593 30.193 12.1369 30.4707 12.4794 30.4707H23.8188C24.5664 31.2969 25.4481 32.0001 26.2843 32.0001C28.3016 32.0001 30.5851 27.9076 30.6071 27.8666C31.6052 26.0072 31.9746 24.419 31.9247 22.202ZM19.9373 7.16141H16.5231C15.878 5.47638 15.756 4.0869 15.7341 2.04717C17.9708 2.83825 19.5968 4.81181 19.9373 7.16141ZM12.8618 1.24022H14.4893C14.4932 3.64054 14.5541 5.26623 15.2039 7.16141H12.1485C12.7972 5.26616 12.8579 3.6403 12.8618 1.24022ZM11.6177 1.99824C11.5972 4.06482 11.4786 5.46286 10.8296 7.16147H7.27007C7.62378 4.7813 9.33479 2.75422 11.6177 1.99824ZM6.73237 8.40163H10.8808C10.9173 8.43127 10.9527 8.43505 10.9823 8.40163H20.4753C20.9219 8.40163 21.2853 8.76495 21.2853 9.21168C21.2853 9.65934 20.922 10.0235 20.4753 10.0235H6.73237C6.28478 10.0235 5.92058 9.65934 5.92058 9.21168C5.92058 8.76501 6.28471 8.40163 6.73237 8.40163ZM7.15752 12.0684V11.2637H20.0501V12.0684C20.0501 14.4326 17.7596 17.3566 15.1484 18.3259C14.0059 18.7505 13.1947 18.7502 12.0495 18.3246C9.44349 17.3513 7.15752 14.4278 7.15752 12.0684ZM9.7311 22.1655C9.08929 21.3276 8.47128 20.2276 8.76832 18.6307C9.04185 18.5424 9.3245 18.4619 9.61756 18.3906C10.2429 18.8494 10.9173 19.2257 11.6165 19.4868C11.8415 19.5704 12.0581 19.6393 12.2699 19.6966L9.7311 22.1655ZM17.4759 22.1652L14.9356 19.6958C15.1447 19.6391 15.3584 19.5711 15.5802 19.4886C16.2829 19.2278 16.9606 18.8507 17.5888 18.3905C17.8783 18.4609 18.1614 18.5407 18.4376 18.6302C18.7353 20.2248 18.1175 21.326 17.4759 22.1652ZM29.5141 27.2804C28.7808 28.649 27.0634 30.7598 26.2843 30.7598C25.5052 30.7598 23.7878 28.649 23.054 27.2795C22.2345 25.7558 21.8982 24.4851 21.88 22.755C22.549 22.6277 23.2454 22.3781 23.9303 22.0294C23.9543 22.0189 23.9778 22.0066 24.0008 21.9928C24.8005 21.5772 25.5826 21.0271 26.284 20.3733C27.6047 21.6055 29.2126 22.4744 30.688 22.7551C30.6685 24.4854 30.3323 25.7564 29.5141 27.2804Z" fill="black"/>
<path d="M9.67236 29.2305C9.32987 29.2305 9.05225 29.5082 9.05225 29.8506C9.05225 30.193 9.32987 30.4707 9.67236 30.4707H9.67589C10.0184 30.4707 10.2942 30.193 10.2942 29.8506C10.2942 29.5082 10.0148 29.2305 9.67236 29.2305Z" fill="black"/>
</g>
<defs>
<clipPath id="clip0_527_769">
<rect width="32" height="32" fill="white"/>
</clipPath>
</defs>
</svg>
