<svg width="32" height="32" viewBox="0 0 32 32" fill="none" xmlns="http://www.w3.org/2000/svg">
<path d="M31.3332 18.667C31.3332 17.0566 30.3746 15.669 28.9998 15.0354V14.667C28.9998 7.4987 23.1681 1.66699 15.9998 1.66699C8.83154 1.66699 2.99984 7.4987 2.99984 14.667V15.0354C1.62504 15.669 0.666504 17.0566 0.666504 18.667C0.666504 20.8726 2.46077 22.667 4.6665 22.667H5.99984C6.368 22.667 6.6665 22.3685 6.6665 22.0003V15.3337C6.6665 14.9655 6.368 14.667 5.99984 14.667H4.6665C4.554 14.667 4.44336 14.6747 4.33317 14.6839V14.667C4.33317 8.23405 9.56689 3.00033 15.9998 3.00033C22.4328 3.00033 27.6665 8.23405 27.6665 14.667V14.6839C27.5563 14.6747 27.4457 14.667 27.3332 14.667H25.9998C25.6317 14.667 25.3332 14.9655 25.3332 15.3337V22.0003C25.3332 22.3685 25.6317 22.667 25.9998 22.667H27.3332C27.4457 22.667 27.5563 22.6593 27.6665 22.6501V23.667C27.6665 25.8726 25.8722 27.667 23.6665 27.667H18.6665C18.6665 26.9318 18.0685 26.3337 17.3332 26.3337H13.9998C13.2645 26.3337 12.6665 26.9318 12.6665 27.667V29.0003C12.6665 29.7355 13.2645 30.3337 13.9998 30.3337H17.3332C18.0685 30.3337 18.6665 29.7355 18.6665 29.0003H23.6665C26.6073 29.0003 28.9998 26.6077 28.9998 23.667V22.2985C30.3746 21.665 31.3332 20.2773 31.3332 18.667ZM5.33317 16.0003V21.3337H4.6665C3.19613 21.3337 1.99984 20.1374 1.99984 18.667C1.99984 17.1966 3.19613 16.0003 4.6665 16.0003H5.33317ZM13.9998 29.0003V27.667H17.3332L17.3337 28.3289C17.3336 28.3305 17.3332 28.332 17.3332 28.3337C17.3332 28.3353 17.3336 28.3369 17.3337 28.3385L17.3341 29.0003H13.9998ZM27.3332 21.3337H26.6665V16.0003H27.3332C28.8035 16.0003 29.9998 17.1966 29.9998 18.667C29.9998 20.1374 28.8035 21.3337 27.3332 21.3337ZM15.9998 23.0003C20.0435 23.0003 23.3332 19.7106 23.3332 15.667C23.3332 11.6234 20.0435 8.33366 15.9998 8.33366C11.9562 8.33366 8.6665 11.6234 8.6665 15.667C8.6665 16.9753 9.01709 18.2539 9.6831 19.3823L9.01188 22.8745C8.96533 23.117 9.05648 23.3654 9.24919 23.5202C9.36963 23.6169 9.51742 23.667 9.6665 23.667C9.75602 23.667 9.84587 23.6491 9.93083 23.6125L12.924 22.3205C13.8944 22.7718 14.9276 23.0003 15.9998 23.0003ZM10.5591 21.889L11.0412 19.3797C11.0734 19.2119 11.0402 19.0382 10.9481 18.8944C10.3276 17.9259 9.99984 16.8099 9.99984 15.667C9.99984 12.3586 12.6916 9.66699 15.9998 9.66699C19.3081 9.66699 21.9998 12.3586 21.9998 15.667C21.9998 18.9754 19.3081 21.667 15.9998 21.667C15.036 21.667 14.1102 21.4408 13.2482 20.9946C13.0708 20.9027 12.8612 20.895 12.6776 20.9746L10.5591 21.889ZM15.9998 17.667H12.6665C12.2983 17.667 11.9998 17.3685 11.9998 17.0003C11.9998 16.6322 12.2983 16.3337 12.6665 16.3337H15.9998C16.368 16.3337 16.6665 16.6322 16.6665 17.0003C16.6665 17.3685 16.368 17.667 15.9998 17.667ZM11.9998 14.3337C11.9998 13.9655 12.2983 13.667 12.6665 13.667H19.3332C19.7013 13.667 19.9998 13.9655 19.9998 14.3337C19.9998 14.7018 19.7013 15.0003 19.3332 15.0003H12.6665C12.2983 15.0003 11.9998 14.7018 11.9998 14.3337Z" fill="#FFBC18"/>
</svg>
