<svg width="228" height="48" viewBox="0 0 228 48" fill="none" xmlns="http://www.w3.org/2000/svg">
<path d="M218.223 29.3318H212.799V21.6038C212.799 20.0998 213.183 18.9318 213.951 18.0998C214.751 17.2678 215.999 16.8518 217.695 16.8518H219.183C220.303 16.8518 221.167 17.1558 221.775 17.7638C222.415 18.3398 222.735 19.2358 222.735 20.4518V24.1958H222.495V22.7078C222.495 22.0998 222.383 21.6838 222.159 21.4598C221.935 21.2038 221.551 21.0758 221.007 21.0758H219.567C219.055 21.0758 218.703 21.1718 218.511 21.3638C218.319 21.5238 218.223 21.8598 218.223 22.3718V29.3318ZM222.495 8.35577H227.967V40.4678H222.591V37.0598L222.495 36.8678V8.35577ZM212.799 27.9398H218.223V34.9478C218.223 35.4278 218.319 35.7638 218.511 35.9558C218.703 36.1478 219.055 36.2438 219.567 36.2438H221.007C221.551 36.2438 221.935 36.1318 222.159 35.9078C222.383 35.6518 222.495 35.2358 222.495 34.6598V33.4598H222.735V36.8678C222.735 38.0838 222.415 38.9958 221.775 39.6038C221.167 40.1798 220.303 40.4678 219.183 40.4678H217.695C215.999 40.4678 214.751 40.0518 213.951 39.2198C213.183 38.3878 212.799 37.2198 212.799 35.7158V27.9398Z" fill="white"/>
<path d="M208.997 40.4678H203.573V8.35577H208.997V40.4678Z" fill="white"/>
<path d="M199.434 40.4678H194.01V16.8998H199.434V40.4678ZM193.866 13.0598V8.30777H199.578V13.0598H193.866Z" fill="white"/>
<path d="M174.742 16.8999H180.166V34.9479C180.166 35.4279 180.262 35.7639 180.454 35.9559C180.646 36.1479 180.998 36.2439 181.51 36.2439H182.95C183.494 36.2439 183.878 36.1319 184.102 35.9079C184.326 35.6519 184.438 35.2359 184.438 34.6599V33.1719H184.678V36.8679C184.678 38.0839 184.358 38.9959 183.718 39.6039C183.11 40.1799 182.246 40.4679 181.126 40.4679H179.638C177.942 40.4679 176.694 40.0519 175.894 39.2199C175.126 38.3879 174.742 37.2199 174.742 35.7159V16.8999ZM184.438 16.8999H189.91V40.4679H184.534V37.0599L184.438 36.8679V16.8999Z" fill="white"/>
<path d="M153.938 10.1798H165.457C167.313 10.1798 168.641 10.5958 169.441 11.4278C170.273 12.2598 170.689 13.4278 170.689 14.9318V21.4598C170.689 22.4198 170.529 23.2198 170.209 23.8598C169.889 24.4678 169.377 24.8998 168.673 25.1558C169.377 25.4118 169.889 25.8278 170.209 26.4038C170.529 26.9478 170.689 27.6838 170.689 28.6118V35.7158C170.689 37.2198 170.273 38.3878 169.441 39.2198C168.641 40.0518 167.313 40.4678 165.457 40.4678H153.938V10.1798ZM165.218 35.1398V28.4678C165.218 27.9558 165.121 27.6198 164.929 27.4598C164.737 27.2678 164.369 27.1718 163.825 27.1718H159.457V36.4358H163.825C164.369 36.4358 164.737 36.3558 164.929 36.1958C165.121 36.0038 165.218 35.6518 165.218 35.1398ZM165.218 21.8438V15.5078C165.218 14.9958 165.121 14.6598 164.929 14.4998C164.737 14.3078 164.369 14.2118 163.825 14.2118H159.457V23.1398H163.825C164.369 23.1398 164.737 23.0438 164.929 22.8518C165.121 22.6598 165.218 22.3238 165.218 21.8438Z" fill="white"/>
<path d="M144.465 31.7799V22.2759C144.465 21.7639 144.369 21.4279 144.177 21.2679C143.985 21.0759 143.617 20.9799 143.073 20.9799H141.873V16.8999H144.705C146.529 16.8999 147.825 17.3159 148.593 18.1479C149.393 18.9799 149.793 20.1479 149.793 21.6519V31.7799H144.465ZM144.465 35.0919V30.1959H149.793V35.7159C149.793 37.2199 149.393 38.3879 148.593 39.2199C147.825 40.0519 146.529 40.4679 144.705 40.4679H141.681V36.3879H143.073C143.617 36.3879 143.985 36.2919 144.177 36.0999C144.369 35.9079 144.465 35.5719 144.465 35.0919ZM139.473 22.2759V31.8279H134.145V21.6519C134.145 20.1479 134.529 18.9799 135.297 18.1479C136.097 17.3159 137.425 16.8999 139.281 16.8999H142.065V20.9799H140.865C140.321 20.9799 139.953 21.0759 139.761 21.2679C139.569 21.4279 139.473 21.7639 139.473 22.2759ZM139.473 29.9559V35.0919C139.473 35.5719 139.569 35.9079 139.761 36.0999C139.953 36.2919 140.321 36.3879 140.865 36.3879H142.017V40.4679H139.281C137.425 40.4679 136.097 40.0519 135.297 39.2199C134.529 38.3879 134.145 37.2199 134.145 35.7159V29.9559H139.473Z" fill="white"/>
<path d="M128.618 12.6759V34.8039C128.618 35.3159 128.714 35.6679 128.906 35.8599C129.098 36.0199 129.466 36.0999 130.01 36.0999H131.786V40.4679H128.426C126.57 40.4679 125.226 40.0519 124.394 39.2199C123.594 38.3879 123.194 37.2199 123.194 35.7159V12.6759H128.618ZM131.834 16.8999V21.1239H120.842V16.8999H131.834Z" fill="white"/>
<path d="M108.909 22.2279V35.0919C108.909 35.6039 109.005 35.9559 109.197 36.1479C109.389 36.3079 109.741 36.3879 110.253 36.3879H111.501V40.4679H108.861C107.037 40.4679 105.709 40.0519 104.877 39.2199C104.045 38.3879 103.629 37.2199 103.629 35.7159V21.6519C103.629 20.1479 104.045 18.9799 104.877 18.1479C105.709 17.3159 107.037 16.8999 108.861 16.8999H111.693V20.9319H110.253C109.741 20.9319 109.389 21.0279 109.197 21.2199C109.005 21.3799 108.909 21.7159 108.909 22.2279ZM113.901 29.5239V22.2279C113.901 21.7159 113.805 21.3799 113.613 21.2199C113.453 21.0279 113.101 20.9319 112.557 20.9319H111.165V16.8999H113.949C115.773 16.8999 117.085 17.3159 117.885 18.1479C118.717 18.9799 119.133 20.1479 119.133 21.6519V29.5239H113.901ZM113.805 35.0919V33.3159H119.085V35.7159C119.085 37.2199 118.669 38.3879 117.837 39.2199C117.005 40.0519 115.677 40.4679 113.853 40.4679H111.165V36.3879H112.461C113.005 36.3879 113.357 36.2919 113.517 36.0999C113.709 35.9079 113.805 35.5719 113.805 35.0919ZM119.133 26.7399V30.2439H105.309V26.7399H119.133Z" fill="white"/>
<path d="M90.5951 33.8918H86.1311L82.0991 19.2518V40.4678H77.2031V10.1798H83.2511L88.3391 28.1798L93.4271 10.1798H99.4751V40.4678H94.6271V19.2038L90.5951 33.8918Z" fill="white"/>
<path fill-rule="evenodd" clip-rule="evenodd" d="M34.9093 24C39.5626 24 44.2159 24 48.8729 24L62.8365 48L69.8183 36.0018L48.8729 0L34.9093 24Z" fill="#FF602F"/>
<path fill-rule="evenodd" clip-rule="evenodd" d="M48.8722 48L34.9086 24L20.945 48C30.2553 48 39.562 48 48.8722 48Z" fill="#FFBC18"/>
<path fill-rule="evenodd" clip-rule="evenodd" d="M20.9454 24C25.5988 24 30.2557 24 34.909 24L20.9454 0L0 36.0018L6.98181 48L20.9454 24Z" fill="#FF602F"/>
</svg>
