<svg width="266" height="56" viewBox="0 0 266 56" fill="none" xmlns="http://www.w3.org/2000/svg">
<path d="M254.594 34.2191H248.266V25.2031C248.266 23.4484 248.714 22.0857 249.61 21.1151C250.543 20.1444 251.999 19.6591 253.978 19.6591H255.714C257.02 19.6591 258.028 20.0137 258.738 20.7231C259.484 21.3951 259.858 22.4404 259.858 23.8591V28.2271H259.578V26.4911C259.578 25.7817 259.447 25.2964 259.186 25.0351C258.924 24.7364 258.476 24.5871 257.842 24.5871H256.162C255.564 24.5871 255.154 24.6991 254.93 24.9231C254.706 25.1097 254.594 25.5017 254.594 26.0991V34.2191ZM259.578 9.74707H265.962V47.2111H259.69V43.2351L259.578 43.0111V9.74707ZM248.266 32.5951H254.594V40.7711C254.594 41.3311 254.706 41.7231 254.93 41.9471C255.154 42.1711 255.564 42.2831 256.162 42.2831H257.842C258.476 42.2831 258.924 42.1524 259.186 41.8911C259.447 41.5924 259.578 41.1071 259.578 40.4351V39.0351H259.858V43.0111C259.858 44.4297 259.484 45.4937 258.738 46.2031C258.028 46.8751 257.02 47.2111 255.714 47.2111H253.978C251.999 47.2111 250.543 46.7257 249.61 45.7551C248.714 44.7844 248.266 43.4217 248.266 41.6671V32.5951Z" fill="white"/>
<path d="M243.83 47.2111H237.502V9.74707H243.83V47.2111Z" fill="white"/>
<path d="M232.673 47.2094H226.345V19.7135H232.673V47.2094ZM226.177 15.2335V9.68945H232.841V15.2335H226.177Z" fill="white"/>
<path d="M203.866 19.7207H210.194V40.7767C210.194 41.3367 210.306 41.7287 210.53 41.9527C210.754 42.1767 211.165 42.2887 211.762 42.2887H213.442C214.077 42.2887 214.525 42.158 214.786 41.8967C215.048 41.598 215.178 41.1127 215.178 40.4407V38.7047H215.458V43.0167C215.458 44.4354 215.085 45.4994 214.338 46.2087C213.629 46.8807 212.621 47.2167 211.314 47.2167H209.578C207.6 47.2167 206.144 46.7314 205.21 45.7607C204.314 44.79 203.866 43.4274 203.866 41.6727V19.7207ZM215.178 19.7207H221.562V47.2167H215.29V43.2407L215.178 43.0167V19.7207Z" fill="white"/>
<path d="M179.594 11.874H193.034C195.199 11.874 196.748 12.3594 197.682 13.33C198.652 14.3007 199.138 15.6634 199.138 17.418V25.034C199.138 26.154 198.951 27.0874 198.578 27.834C198.204 28.5434 197.607 29.0474 196.786 29.346C197.607 29.6447 198.204 30.13 198.578 30.802C198.951 31.4367 199.138 32.2954 199.138 33.378V41.666C199.138 43.4207 198.652 44.7834 197.682 45.754C196.748 46.7247 195.199 47.21 193.034 47.21H179.594V11.874ZM192.754 40.994V33.21C192.754 32.6127 192.642 32.2207 192.418 32.034C192.194 31.81 191.764 31.698 191.13 31.698H186.034V42.506H191.13C191.764 42.506 192.194 42.4127 192.418 42.226C192.642 42.002 192.754 41.5914 192.754 40.994ZM192.754 25.482V18.09C192.754 17.4927 192.642 17.1007 192.418 16.914C192.194 16.69 191.764 16.578 191.13 16.578H186.034V26.994H191.13C191.764 26.994 192.194 26.882 192.418 26.658C192.642 26.434 192.754 26.042 192.754 25.482Z" fill="white"/>
<path d="M168.543 37.0807V25.9927C168.543 25.3954 168.431 25.0034 168.207 24.8167C167.983 24.5927 167.554 24.4807 166.919 24.4807H165.519V19.7207H168.823C170.951 19.7207 172.463 20.206 173.359 21.1767C174.292 22.1474 174.759 23.51 174.759 25.2647V37.0807H168.543ZM168.543 40.9447V35.2327H174.759V41.6727C174.759 43.4274 174.292 44.79 173.359 45.7607C172.463 46.7314 170.951 47.2167 168.823 47.2167H165.295V42.4567H166.919C167.554 42.4567 167.983 42.3447 168.207 42.1207C168.431 41.8967 168.543 41.5047 168.543 40.9447ZM162.719 25.9927V37.1367H156.503V25.2647C156.503 23.51 156.951 22.1474 157.847 21.1767C158.78 20.206 160.33 19.7207 162.495 19.7207H165.743V24.4807H164.343C163.708 24.4807 163.279 24.5927 163.055 24.8167C162.831 25.0034 162.719 25.3954 162.719 25.9927ZM162.719 34.9527V40.9447C162.719 41.5047 162.831 41.8967 163.055 42.1207C163.279 42.3447 163.708 42.4567 164.343 42.4567H165.687V47.2167H162.495C160.33 47.2167 158.78 46.7314 157.847 45.7607C156.951 44.79 156.503 43.4274 156.503 41.6727V34.9527H162.719Z" fill="white"/>
<path d="M150.055 14.7871V40.6031C150.055 41.2004 150.167 41.6111 150.391 41.8351C150.615 42.0218 151.045 42.1151 151.679 42.1151H153.751V47.2111H149.831C147.666 47.2111 146.098 46.7258 145.127 45.7551C144.194 44.7844 143.727 43.4218 143.727 41.6671V14.7871H150.055ZM153.807 19.7151V24.6431H140.983V19.7151H153.807Z" fill="white"/>
<path d="M127.062 25.9367V40.9447C127.062 41.542 127.174 41.9527 127.398 42.1767C127.622 42.3634 128.033 42.4567 128.63 42.4567H130.086V47.2167H127.006C124.878 47.2167 123.329 46.7314 122.358 45.7607C121.388 44.79 120.902 43.4274 120.902 41.6727V25.2647C120.902 23.51 121.388 22.1474 122.358 21.1767C123.329 20.206 124.878 19.7207 127.006 19.7207H130.31V24.4247H128.63C128.033 24.4247 127.622 24.5367 127.398 24.7607C127.174 24.9474 127.062 25.3394 127.062 25.9367ZM132.886 34.4487V25.9367C132.886 25.3394 132.774 24.9474 132.55 24.7607C132.364 24.5367 131.953 24.4247 131.318 24.4247H129.694V19.7207H132.942C135.07 19.7207 136.601 20.206 137.534 21.1767C138.505 22.1474 138.99 23.51 138.99 25.2647V34.4487H132.886ZM132.774 40.9447V38.8727H138.934V41.6727C138.934 43.4274 138.449 44.79 137.478 45.7607C136.508 46.7314 134.958 47.2167 132.83 47.2167H129.694V42.4567H131.206C131.841 42.4567 132.252 42.3447 132.438 42.1207C132.662 41.8967 132.774 41.5047 132.774 40.9447ZM138.99 31.2007V35.2887H122.862V31.2007H138.99Z" fill="white"/>
<path d="M105.694 39.538H100.486L95.7823 22.458V47.21H90.0703V11.874H97.1263L103.062 32.874L108.998 11.874H116.054V47.21H110.398V22.402L105.694 39.538Z" fill="white"/>
<path fill-rule="evenodd" clip-rule="evenodd" d="M40.7295 28C46.1584 28 51.5873 28 57.0204 28L73.3113 56L81.4568 42.0021L57.0204 0L40.7295 28Z" fill="#FFBC18"/>
<path fill-rule="evenodd" clip-rule="evenodd" d="M57.0193 56L40.7284 28L24.4375 56C35.2995 56 46.1573 56 57.0193 56Z" fill="white"/>
<path fill-rule="evenodd" clip-rule="evenodd" d="M24.4364 28C29.8653 28 35.2984 28 40.7273 28L24.4364 0L0 42.0021L8.14546 56L24.4364 28Z" fill="#FFBC18"/>
</svg>
