<svg width="171" height="36" viewBox="0 0 171 36" fill="none" xmlns="http://www.w3.org/2000/svg">
<path d="M163.667 21.9989H159.599V16.2029C159.599 15.0749 159.887 14.1989 160.463 13.5749C161.063 12.9509 161.999 12.6389 163.271 12.6389H164.387C165.227 12.6389 165.875 12.8669 166.331 13.3229C166.811 13.7549 167.051 14.4269 167.051 15.3389V18.1469H166.871V17.0309C166.871 16.5749 166.787 16.2629 166.619 16.0949C166.451 15.9029 166.163 15.8069 165.755 15.8069H164.675C164.291 15.8069 164.027 15.8789 163.883 16.0229C163.739 16.1429 163.667 16.3949 163.667 16.7789V21.9989ZM166.871 6.26696H170.975V30.3509H166.943V27.7949L166.871 27.6509V6.26696ZM159.599 20.9549H163.667V26.2109C163.667 26.5709 163.739 26.8229 163.883 26.9669C164.027 27.1109 164.291 27.1829 164.675 27.1829H165.755C166.163 27.1829 166.451 27.0989 166.619 26.9309C166.787 26.7389 166.871 26.4269 166.871 25.9949V25.0949H167.051V27.6509C167.051 28.5629 166.811 29.2469 166.331 29.7029C165.875 30.1349 165.227 30.3509 164.387 30.3509H163.271C161.999 30.3509 161.063 30.0389 160.463 29.4149C159.887 28.7909 159.599 27.9149 159.599 26.7869V20.9549Z" fill="black"/>
<path d="M156.748 30.3509H152.68V6.26696H156.748V30.3509Z" fill="black"/>
<path d="M149.575 30.3508H145.507V12.6748H149.575V30.3508ZM145.399 9.79483V6.23083H149.683V9.79483H145.399Z" fill="black"/>
<path d="M131.056 12.6749H135.124V26.2109C135.124 26.5709 135.196 26.8229 135.34 26.9669C135.484 27.1109 135.748 27.1829 136.132 27.1829H137.212C137.62 27.1829 137.908 27.0989 138.076 26.9309C138.244 26.7389 138.328 26.4269 138.328 25.9949V24.8789H138.508V27.6509C138.508 28.5629 138.268 29.2469 137.788 29.7029C137.332 30.1349 136.684 30.3509 135.844 30.3509H134.728C133.456 30.3509 132.52 30.0389 131.92 29.4149C131.344 28.7909 131.056 27.9149 131.056 26.7869V12.6749ZM138.328 12.6749H142.432V30.3509H138.4V27.7949L138.328 27.6509V12.6749Z" fill="black"/>
<path d="M115.453 7.63493H124.093C125.485 7.63493 126.481 7.94693 127.081 8.57092C127.705 9.19492 128.017 10.0709 128.017 11.1989V16.0949C128.017 16.8149 127.897 17.4149 127.657 17.8949C127.417 18.3509 127.033 18.6749 126.505 18.8669C127.033 19.0589 127.417 19.3709 127.657 19.8029C127.897 20.2109 128.017 20.7629 128.017 21.4589V26.7869C128.017 27.9149 127.705 28.7909 127.081 29.4149C126.481 30.0389 125.485 30.3509 124.093 30.3509H115.453V7.63493ZM123.913 26.3549V21.3509C123.913 20.9669 123.841 20.7149 123.697 20.5949C123.553 20.4509 123.277 20.3789 122.869 20.3789H119.593V27.3269H122.869C123.277 27.3269 123.553 27.2669 123.697 27.1469C123.841 27.0029 123.913 26.7389 123.913 26.3549ZM123.913 16.3829V11.6309C123.913 11.2469 123.841 10.9949 123.697 10.8749C123.553 10.7309 123.277 10.6589 122.869 10.6589H119.593V17.3549H122.869C123.277 17.3549 123.553 17.2829 123.697 17.1389C123.841 16.9949 123.913 16.7429 123.913 16.3829Z" fill="black"/>
<path d="M108.348 23.8349V16.7069C108.348 16.3229 108.276 16.0709 108.132 15.9509C107.988 15.8069 107.712 15.7349 107.304 15.7349H106.404V12.6749H108.528C109.896 12.6749 110.868 12.9869 111.444 13.6109C112.044 14.2349 112.344 15.1109 112.344 16.2389V23.8349H108.348ZM108.348 26.3189V22.6469H112.344V26.7869C112.344 27.9149 112.044 28.7909 111.444 29.4149C110.868 30.0389 109.896 30.3509 108.528 30.3509H106.26V27.2909H107.304C107.712 27.2909 107.988 27.2189 108.132 27.0749C108.276 26.9309 108.348 26.6789 108.348 26.3189ZM104.604 16.7069V23.8709H100.608V16.2389C100.608 15.1109 100.896 14.2349 101.472 13.6109C102.072 12.9869 103.068 12.6749 104.46 12.6749H106.548V15.7349H105.648C105.24 15.7349 104.964 15.8069 104.82 15.9509C104.676 16.0709 104.604 16.3229 104.604 16.7069ZM104.604 22.4669V26.3189C104.604 26.6789 104.676 26.9309 104.82 27.0749C104.964 27.2189 105.24 27.2909 105.648 27.2909H106.512V30.3509H104.46C103.068 30.3509 102.072 30.0389 101.472 29.4149C100.896 28.7909 100.608 27.9149 100.608 26.7869V22.4669H104.604Z" fill="black"/>
<path d="M96.4633 9.50696V26.1029C96.4633 26.4869 96.5353 26.7509 96.6793 26.8949C96.8233 27.0149 97.0993 27.0749 97.5073 27.0749H98.8393V30.3509H96.3193C94.9273 30.3509 93.9193 30.0389 93.2953 29.4149C92.6953 28.7909 92.3953 27.9149 92.3953 26.7869V9.50696H96.4633ZM98.8753 12.675V15.8429H90.6313V12.675H98.8753Z" fill="black"/>
<path d="M81.6817 16.6709V26.3189C81.6817 26.7029 81.7537 26.9669 81.8977 27.1109C82.0417 27.2309 82.3057 27.2909 82.6897 27.2909H83.6257V30.3509H81.6457C80.2777 30.3509 79.2817 30.0389 78.6577 29.4149C78.0337 28.7909 77.7217 27.9149 77.7217 26.7869V16.2389C77.7217 15.1109 78.0337 14.2349 78.6577 13.6109C79.2817 12.9869 80.2777 12.6749 81.6457 12.6749H83.7697V15.6989H82.6897C82.3057 15.6989 82.0417 15.7709 81.8977 15.9149C81.7537 16.0349 81.6817 16.2869 81.6817 16.6709ZM85.4257 22.1429V16.6709C85.4257 16.2869 85.3537 16.0349 85.2097 15.9149C85.0897 15.7709 84.8257 15.6989 84.4177 15.6989H83.3737V12.6749H85.4617C86.8297 12.6749 87.8137 12.9869 88.4137 13.6109C89.0377 14.2349 89.3497 15.1109 89.3497 16.2389V22.1429H85.4257ZM85.3537 26.3189V24.9869H89.3137V26.7869C89.3137 27.9149 89.0017 28.7909 88.3777 29.4149C87.7537 30.0389 86.7577 30.3509 85.3897 30.3509H83.3737V27.2909H84.3457C84.7537 27.2909 85.0177 27.2189 85.1377 27.0749C85.2817 26.9309 85.3537 26.6789 85.3537 26.3189ZM89.3497 20.0549V22.6829H78.9817V20.0549H89.3497Z" fill="black"/>
<path d="M67.9463 25.4186H64.5983L61.5743 14.4387V30.3506H57.9023V7.63468H62.4383L66.2543 21.1347L70.0703 7.63468H74.6063V30.3506H70.9703V14.4027L67.9463 25.4186Z" fill="black"/>
<path fill-rule="evenodd" clip-rule="evenodd" d="M26.1821 18C29.6721 18 33.1621 18 36.6548 18L47.1276 35.9999L52.3639 27.0013L36.6548 0L26.1821 18Z" fill="#FFBC18"/>
<path fill-rule="evenodd" clip-rule="evenodd" d="M36.6544 36L26.1817 18L15.709 36C22.6917 36 29.6717 36 36.6544 36Z" fill="#FF602F"/>
<path fill-rule="evenodd" clip-rule="evenodd" d="M15.7091 18C19.1991 18 22.6918 18 26.1818 18L15.7091 0L0 27.0013L5.23636 35.9999L15.7091 18Z" fill="#FFBC18"/>
</svg>
